# xmcd
#
# Track frame offsets: 
#        150
#        10711
#        24615
#        38601
#        52865
#        65500
#        77356
#        92448
#        103903
#        120252
#        132285
#        142065
#        156898
#
# Disc length: 2294 seconds
#
# Revision: 0
# Processed by: cddbd v1.5.2PL0 Copyright (c) Steve Scherf et al.
# Submitted via: ExactAudioCopy v1.3
#
DISCID=9808f40d
DTITLE=Langhorne Slim and The Law - Be Set Free
DYEAR=2009
DGENRE=Blues
TTITLE0=Back to the Wild
TTITLE1=Say Yes
TTITLE2=I Love You, But Goodbye
TTITLE3=Land of Dreams
TTITLE4=Cinderella
TTITLE5=Be Set Free
TTITLE6=For a Little While
TTITLE7=Sunday by the Sea
TTITLE8=Leaving My Love
TTITLE9=Yer Wrong
TTITLE10=Blown Your Mind
TTITLE11=So Glad I'm Coming Home
TTITLE12=Boots Boy
EXTD=
EXTT0=
EXTT1=
EXTT2=
EXTT3=
EXTT4=
EXTT5=
EXTT6=
EXTT7=
EXTT8=
EXTT9=
EXTT10=
EXTT11=
EXTT12=
PLAYORDER=
